<svg width="1600" height="220" viewBox="0 0 1600 220" fill="none" xmlns="http://www.w3.org/2000/svg" role="img" aria-label="Footer banner">
  <defs>
    <linearGradient id="fbg" x1="0" y1="0" x2="1600" y2="220" gradientUnits="userSpaceOnUse">
      <stop offset="0" stop-color="#0d1117"/>
      <stop offset="0.5" stop-color="#12101f"/>
      <stop offset="1" stop-color="#0d1117"/>
    </linearGradient>
    <linearGradient id="fwave1" x1="0" y1="60" x2="1600" y2="220" gradientUnits="userSpaceOnUse">
      <stop offset="0" stop-color="#4c1d95"/>
      <stop offset="0.55" stop-color="#7c3aed"/>
      <stop offset="1" stop-color="#312e81"/>
    </linearGradient>
    <linearGradient id="fwave2" x1="0" y1="100" x2="1600" y2="220" gradientUnits="userSpaceOnUse">
      <stop offset="0" stop-color="#312e81"/>
      <stop offset="0.5" stop-color="#6d28d9"/>
      <stop offset="1" stop-color="#4c1d95"/>
    </linearGradient>
  </defs>

  <rect width="1600" height="220" fill="url(#fbg)"/>

  <g opacity="0.5">
    <path d="M-200 95 C 60 55, 260 135, 520 105 C 780 75, 980 145, 1240 110 C 1440 85, 1640 125, 1800 100 L 1800 220 L -200 220 Z" fill="url(#fwave2)">
      <animateTransform attributeName="transform" type="translate" values="0 0; -90 0; 0 0" dur="16s" repeatCount="indefinite"/>
    </path>
  </g>
  <g opacity="0.85">
    <path d="M-200 140 C 40 105, 300 175, 560 148 C 820 120, 1060 185, 1320 152 C 1520 130, 1680 165, 1800 145 L 1800 220 L -200 220 Z" fill="url(#fwave1)">
      <animateTransform attributeName="transform" type="translate" values="0 0; 70 0; 0 0" dur="12s" repeatCount="indefinite"/>
    </path>
  </g>
</svg>
